<?xml version="1.0" encoding="utf-8"?>
<!-- Generator: Adobe Illustrator 23.0.3, SVG Export Plug-In . SVG Version: 6.00 Build 0)  -->
<svg version="1.1" id="Layer_1" xmlns="http://www.w3.org/2000/svg" xmlns:xlink="http://www.w3.org/1999/xlink" x="0px" y="0px"
	 viewBox="0 0 512 512" style="enable-background:new 0 0 512 512;" xml:space="preserve">
<style type="text/css">
	.st0{fill:#001D26;}
</style>
<title>ai-glyph</title>
<path class="st0" d="M235.5,290.4c3.8,15.1,13.2,44.3,17,58.7h-33.7c5.8-20.1,13.6-44.5,16.5-58.7H235.5z M460.8,153.6V448
	c0,35.3-28.7,64-64,64H115.2c-35.3,0-64-28.7-64-64V64c0-35.3,28.7-64,64-64h192.1L460.8,153.6z M294.3,407.7
	c-14.6-44.7-30.1-93.5-44.3-137.8c-0.4-0.9-0.6-1.1-1.5-1.1h-26.4c-0.7,0-1.2,0.6-1.2,1.2c0,0,0,0.1,0,0.1c-0.4,7.6-1,9.7-1.5,11.9
	c-12.3,37.4-29.7,92.4-40,125.5c-0.4,1.5,0,2.2,1.3,2.2h19.5c1.1,0,1.7-0.4,1.9-1.7l11.7-37.6h43.9l12.3,38c0.4,0.9,0.8,1.3,1.7,1.3
	h21.5C294.3,409.6,294.6,409,294.3,407.7z M332.8,308.9c0-1.5-0.4-1.7-1.7-1.7h-22.4c-1.1,0-1.5,0.4-1.5,1.7v98.8
	c0,1.5,0.6,1.9,1.9,1.9h22c1.3,0,1.7-0.6,1.7-1.7L332.8,308.9z M332.8,281.6c0-7.6-4.8-12.8-12.6-12.8c-7.5,0-13,5.2-13,12.8
	c0,7.9,5.2,12.8,12.8,12.8S332.8,289.5,332.8,281.6L332.8,281.6z M435.2,166.4L294.4,25.6v76.8c0,35.3,28.7,64,64,64H435.2z"/>
</svg>
