<?xml version="1.0" encoding="utf-8"?>
<!-- Generator: Adobe Illustrator 23.0.3, SVG Export Plug-In . SVG Version: 6.00 Build 0)  -->
<svg version="1.1" id="Layer_1" xmlns="http://www.w3.org/2000/svg" xmlns:xlink="http://www.w3.org/1999/xlink" x="0px" y="0px"
	 viewBox="0 0 512 512" style="enable-background:new 0 0 512 512;" xml:space="preserve">
<style type="text/css">
	.st0{fill:#001D26;}
</style>
<title>ps-glyph</title>
<path class="st0" d="M307.3,0H115.2c-35.3,0-64,28.7-64,64v384c0,35.3,28.7,64,64,64h281.6c35.3,0,64-28.7,64-64V153.6L307.3,0z
	 M214.1,360.1h-11.9v47.8c0,1.3-0.4,1.7-1.3,1.7h-20.4c-1,0-1.3-0.4-1.3-1.5V270.7c0-1,0.2-1.5,1.1-1.5c7.3-0.2,21.7-0.4,36.3-0.4
	c37.6,0,52,20.7,52.2,45.1C268.8,347.4,242.4,360.1,214.1,360.1z M311.9,409.6c-9.6,0-21.6-0.9-29.2-6.1c-0.7-0.4-1.2-1.2-1.1-2
	v-18.4c0-1,0.7-1.4,1.3-1c9.4,6.6,19.8,8.5,29.2,8.5c8.3,0,11.2-5.2,11.2-9.6c0-5.2-2-8.2-15-14c-18.6-8.4-26.3-15.6-26.3-30.2
	c0-16.2,13-29.6,34.2-29.6c11,0,18.8,0.3,23.8,3.5c0.8,0.6,1.2,1.6,1.1,2.6v16.4c0,1.2-0.7,1.8-1.6,1.2c-6.5-4-15.7-5.3-25.1-5.3
	c-8.8,0-11.2,5.2-11.2,9c0,4.8,2.3,7.4,15.9,13.4c18.6,8.4,26.5,15.8,26.5,30.2C345.6,398.2,331.7,409.6,311.9,409.6z M358.4,166.4
	c-35.3,0-64-28.7-64-64V25.6l140.8,140.8H358.4z M244.5,314.9c0,21.1-14.6,25.1-29.8,25.1c-8.1,0-10.9-0.2-12.5-0.4v-49.8
	c1.5-0.2,6.9-0.4,14.4-0.4C234.7,289.4,244.5,298.1,244.5,314.9z"/>
</svg>
